<?xml version="1.0" encoding="UTF-8" standalone="no"?>
<!DOCTYPE svg PUBLIC "-//W3C//DTD SVG 20010904//EN" "http://www.w3.org/TR/2001/REC-SVG-20010904/DTD/svg10.dtd">
<svg xmlns="http://www.w3.org/2000/svg" viewBox="0 0 64 64">
	<defs>
		<linearGradient id="gradient">
				<stop offset="0" stop-color="#6549D5" />
				<stop offset="0.25" stop-color="#DB3C9C" />
				<stop offset="0.5" stop-color="#F65056" />
				<stop offset="0.75" stop-color="#FB5343" />
				<stop offset="1" stop-color="#FD7B42" />
		</linearGradient>
	</defs>
  <path fill="url(#gradient)" d="M 36.01,3.89 C 36.06,4.09 36.10,9.55 36.11,16.03 36.11,23.78 36.15,27.82 36.24,27.83 36.32,27.85 39.64,27.86 43.62,27.87 51.63,27.90 51.30,27.87 52.04,28.73 52.36,29.13 52.44,29.32 52.56,30.04 52.65,30.60 52.34,31.23 51.06,33.08 50.38,34.08 49.44,35.45 48.95,36.15 48.47,36.85 47.84,37.77 47.54,38.20 47.07,38.88 43.51,44.06 39.90,49.31 39.31,50.17 38.39,51.51 37.84,52.31 37.29,53.09 36.44,54.33 35.96,55.05 35.47,55.77 34.66,56.95 34.16,57.68 33.66,58.41 33.19,59.09 33.11,59.19 32.00,60.90 31.60,61.34 30.88,61.58 29.83,61.94 28.66,61.45 28.12,60.42 27.91,60.06 27.90,58.96 27.89,48.17 27.89,41.67 27.83,36.28 27.78,36.22 27.72,36.17 24.40,36.11 20.40,36.11 12.37,36.10 12.70,36.13 11.96,35.27 11.53,34.74 11.42,34.29 11.48,33.35 11.49,33.10 12.59,31.37 14.20,29.10 14.43,28.76 15.11,27.77 15.70,26.91 16.30,26.03 17.40,24.42 18.16,23.33 18.91,22.23 19.91,20.78 20.36,20.10 20.83,19.42 21.38,18.64 21.58,18.35 21.77,18.06 22.47,17.06 23.11,16.13 23.73,15.19 24.71,13.78 25.26,13.00 25.81,12.20 26.32,11.47 26.38,11.36 27.26,10.08 31.71,3.62 31.96,3.29 32.35,2.77 32.78,2.48 33.35,2.35 34.47,2.12 35.74,2.83 36.01,3.89 Z" />
</svg>
