<?xml version="1.0" standalone="no"?>
<!DOCTYPE svg PUBLIC "-//W3C//DTD SVG 20010904//EN"
 "http://www.w3.org/TR/2001/REC-SVG-20010904/DTD/svg10.dtd">
<svg version="1.0" xmlns="http://www.w3.org/2000/svg"
 width="700.000000pt" height="700.000000pt" viewBox="0 0 700.000000 700.000000"
 preserveAspectRatio="xMidYMid meet">
<metadata>
Created by potrace 1.14, written by Peter Selinger 2001-2017
</metadata>
<g transform="translate(0.000000,700.000000) scale(0.100000,-0.100000)"
fill="#000000" stroke="none">
<path d="M3640 6741 c-42 -13 -93 -42 -112 -65 -21 -24 -127 -171 -213 -296
-344 -499 -422 -612 -496 -720 -47 -69 -122 -177 -165 -240 -44 -63 -120 -173
-169 -245 -49 -71 -102 -150 -119 -174 -17 -24 -38 -53 -46 -66 -8 -13 -29
-42 -46 -66 -17 -24 -66 -96 -109 -159 -43 -63 -244 -356 -446 -650 -202 -294
-388 -571 -415 -615 -45 -74 -49 -85 -48 -145 0 -73 18 -118 67 -175 62 -71
29 -69 1269 -78 241 -2 441 -6 444 -10 8 -8 12 -415 15 -1547 1 -514 6 -970
10 -1013 6 -67 12 -85 41 -122 74 -100 208 -130 314 -71 65 36 92 71 388 506
151 221 239 350 397 580 86 124 180 261 210 305 147 213 459 667 496 720 23
33 75 110 117 170 41 61 118 173 171 250 53 77 131 191 173 254 42 62 82 118
87 125 30 32 254 378 275 424 22 49 23 58 13 118 -13 73 -58 146 -110 175 -52
29 -168 36 -628 39 -242 1 -575 3 -740 3 l-300 2 -6 42 c-3 22 -6 403 -8 845
-1 441 -4 1013 -6 1270 l-3 468 -27 45 c-51 88 -183 144 -275 116z"/>
</g>
</svg>
